<?xml version="1.0" encoding="UTF-8"?>
<svg xmlns="http://www.w3.org/2000/svg" viewBox="0 0 512 512">
  <!-- Variante maskable (PWA) : fond navy PLEIN (l'OS applique son propre masque),
       picto réduit dans la zone sûre centrale (~58%). -->
  <rect width="512" height="512" fill="#1b2333"/>
  <g transform="translate(106 114.5) scale(1.15)">
    <path fill="#c9b48a" d="M21,143.31c0-46.13,28.69-85.68,69.17-101.75l-7.72-19.53C34.2,41.19,0,88.33,0,143.31c0,41.61,19.59,78.73,50.03,102.63l12.94-16.52c-25.54-20.05-41.97-51.19-41.97-86.1Z"/>
    <path fill="#c9b48a" d="M179.22,22.37l-7.86,19.47c40.11,16.24,68.48,55.6,68.48,101.47,0,35.02-16.54,66.25-42.22,86.29l12.9,16.56c30.61-23.89,50.32-61.11,50.32-102.85,0-54.67-33.82-101.58-81.63-120.94Z"/>
    <path fill="#ffffff" d="M229.14,143.31c0-41.38-25.59-76.89-61.78-91.54l-5.62,13.92c30.69,12.43,52.4,42.52,52.4,77.62,0,26.79-12.67,50.67-32.31,66l9.23,11.85c23.16-18.08,38.09-46.25,38.09-77.85Z"/>
    <path fill="#ffffff" d="M46.71,143.31c0-35.29,21.96-65.53,52.93-77.82l-5.53-13.97c-36.52,14.5-62.4,50.18-62.4,91.8,0,31.5,14.83,59.59,37.87,77.68l9.26-11.82c-19.54-15.34-32.13-39.15-32.13-65.86Z"/>
    <path fill="#ffffff" opacity=".13" d="M130.42,106.96c-20.07,0-36.35,16.27-36.35,36.35s16.27,36.35,36.35,36.35,36.35-16.27,36.35-36.35-16.27-36.35-36.35-36.35ZM130.42,167.77c-13.51,0-24.46-10.95-24.46-24.46s10.95-24.46,24.46-24.46,24.46,10.95,24.46,24.46-10.95,24.46-24.46,24.46Z"/>
    <circle fill="#ffffff" cx="130.42" cy="143.31" r="24.46"/>
    <path fill="#c9b48a" d="M108.68,65.49h42.9l19.79-60.83c-27.22-6.17-54.28-6.24-81.19,0l18.51,60.83Z"/>
  </g>
</svg>
