<?xml version="1.0" encoding="UTF-8"?>
<svg id="Calque_2" data-name="Calque 2" xmlns="http://www.w3.org/2000/svg" viewBox="0 0 260.85 246.17">
  <defs>
    <style>
      .cls-1 {
        fill: none;
      }

      .cls-1, .cls-2, .cls-3, .cls-4 {
        stroke-width: 0px;
      }

      .cls-2 {
        opacity: .13;
      }

      .cls-2, .cls-4 {
        fill: #fff;
      }

      .cls-3 {
        fill: #c9b48a;
      }
    </style>
  </defs>
  <g id="Calque_1-2" data-name="Calque 1">
    <g>
      <g>
        <path class="cls-1" d="M239.85,143.31c0-45.87-28.37-85.23-68.48-101.47l-4.01,9.93c36.19,14.65,61.78,50.16,61.78,91.54,0,31.6-14.92,59.77-38.09,77.85l6.58,8.44c25.68-20.04,42.22-51.27,42.22-86.29Z"/>
        <path class="cls-1" d="M31.71,143.31c0-41.62,25.89-77.3,62.4-91.8l-3.94-9.96C49.69,57.63,21,97.18,21,143.31c0,34.91,16.43,66.06,41.97,86.1l6.6-8.42c-23.04-18.09-37.87-46.18-37.87-77.68Z"/>
        <path class="cls-3" d="M21,143.31c0-46.13,28.69-85.68,69.17-101.75l-7.72-19.53C34.2,41.19,0,88.33,0,143.31c0,41.61,19.59,78.73,50.03,102.63l12.94-16.52c-25.54-20.05-41.97-51.19-41.97-86.1Z"/>
        <path class="cls-3" d="M179.22,22.37l-7.86,19.47c40.11,16.24,68.48,55.6,68.48,101.47,0,35.02-16.54,66.25-42.22,86.29l12.9,16.56c30.61-23.89,50.32-61.11,50.32-102.85,0-54.67-33.82-101.58-81.63-120.94Z"/>
        <path class="cls-4" d="M229.14,143.31c0-41.38-25.59-76.89-61.78-91.54l-5.62,13.92c30.69,12.43,52.4,42.52,52.4,77.62,0,26.79-12.67,50.67-32.31,66l9.23,11.85c23.16-18.08,38.09-46.25,38.09-77.85Z"/>
        <path class="cls-4" d="M46.71,143.31c0-35.29,21.96-65.53,52.93-77.82l-5.53-13.97c-36.52,14.5-62.4,50.18-62.4,91.8,0,31.5,14.83,59.59,37.87,77.68l9.26-11.82c-19.54-15.34-32.13-39.15-32.13-65.86Z"/>
        <path class="cls-2" d="M130.42,106.96c-20.07,0-36.35,16.27-36.35,36.35s16.27,36.35,36.35,36.35,36.35-16.27,36.35-36.35-16.27-36.35-36.35-36.35ZM130.42,167.77c-13.51,0-24.46-10.95-24.46-24.46s10.95-24.46,24.46-24.46,24.46,10.95,24.46,24.46-10.95,24.46-24.46,24.46Z"/>
        <circle class="cls-4" cx="130.42" cy="143.31" r="24.46" transform="translate(-21.27 22.74) rotate(-9.22)"/>
      </g>
      <path class="cls-3" d="M108.68,65.49h42.9l19.79-60.83c-27.22-6.17-54.28-6.24-81.19,0l18.51,60.83Z"/>
    </g>
  </g>
</svg>