<?xml version="1.0" encoding="utf-8"?>
<!-- Generator: Adobe Illustrator 28.1.0, SVG Export Plug-In . SVG Version: 6.00 Build 0)  -->
<svg version="1.1" id="Calque_1" xmlns="http://www.w3.org/2000/svg" xmlns:xlink="http://www.w3.org/1999/xlink" x="0px" y="0px"
	 viewBox="0 0 1204.2 341" style="enable-background:new 0 0 1204.2 341;" xml:space="preserve">
<style type="text/css">
	.st0{fill:#1D3962;}
	.st1{fill:#040F1D;}
	.st2{fill:#0E2039;}
	.st3{fill:#0D1F39;}
	.st4{fill:#1C3861;}
	.st5{fill:#06111E;}
	.st6{fill:#071220;}
	.st7{fill:#06111F;}
	.st8{fill:#06101E;}
	.st9{fill:#030E1C;}
	.st10{fill:#05101E;}
	.st11{fill:#192A43;}
	.st12{fill:#1B2C44;}
	.st13{fill:#162840;}
	.st14{fill:#24354C;}
</style>
<g>
	<g>
		<path class="st0" d="M212.1,61.8c2.6-0.4,4.7,0.7,6.8,1.9c13.5,7.9,27,15.9,40.5,23.8c12.8,7.5,25.6,15,38.4,22.6
			c1.7,1,3.2,2.1,4.7,3.4c1.8,1.5,2.7,3.6,2.8,5.8c0.1,7.9,0,15.7,0,24.1c-31.3-18.3-62.3-36.5-93.3-54.6
			C212.1,79.8,212.1,70.8,212.1,61.8z"/>
		<path class="st0" d="M212.1,256.6c31-18.1,61.9-36.3,93.2-54.6c0.1,0.9,0.1,1.5,0.1,2.1c0,6.9,0,13.8,0,20.7c0,3.5-1.3,6.2-4,8.2
			c-1,0.8-2.2,1.5-3.3,2.2c-26.4,15.5-52.7,31-79.1,46.5c-2.1,1.2-4.3,2.3-6.8,1.9C212.1,274.6,212.1,265.6,212.1,256.6z"/>
		<path class="st1" d="M212.1,61.8c0,9,0,18.1,0,27.1c-31,18.1-61.9,36.2-93.2,54.6c0-1.7,0-2.9,0-4.1c0-5.9,0.1-11.9,0-17.8
			c-0.1-4.4,1.7-7.8,5.4-10c5-3,10-5.9,15-8.9C161.1,89.7,183,76.8,204.9,64C207.1,62.7,209.4,61.5,212.1,61.8z"/>
		<path class="st2" d="M212.1,256.6c0,9,0,18.1,0,27.1c-2.7,0.3-5-0.9-7.2-2.2c-18.6-11-37.3-21.9-55.9-32.9
			c-7.6-4.4-15.1-8.9-22.7-13.4c-1.2-0.7-2.5-1.5-3.6-2.4c-2.5-1.9-3.8-4.5-3.9-7.7c0-7.4,0-14.8,0-22.2c0-0.2,0.1-0.4,0.2-0.8
			C150.2,220.3,181.1,238.4,212.1,256.6z"/>
		<path class="st3" d="M211.2,188.2c0.1,0.8,0.2,1.5,0.2,2.3c0,17.8,0,35.6,0,53.4c0,0.7-0.1,1.3-0.1,2.3
			c-10.9-6.3-21.6-12.5-32.3-18.7c0-0.7,0-1.4,0-2.1c0-17.5,0-35.1,0-52.6c0-0.7,0.2-1.4,0.3-2.1c4,2.3,8,4.6,12,6.9
			c4.5,2.5,9,5.1,13.5,7.5C206.9,186.3,209.1,187.2,211.2,188.2z"/>
		<path class="st2" d="M222.7,146c-14.5-8-29-16-43.8-24.2c11.2-6.5,22.1-12.8,33-19.2c0.4,0.2,0.8,0.3,1.1,0.5
			c13.8,7.9,27.7,15.9,41.5,23.8c0.3,0.2,0.6,0.5,0.9,0.8c-1.9,1.1-3.8,2.2-5.7,3.3c-6.2,3.5-12.5,7.1-18.7,10.6
			C228.3,143.1,225.5,144.5,222.7,146z"/>
		<path class="st4" d="M222.7,146c2.8-1.5,5.6-2.9,8.4-4.5c6.3-3.5,12.5-7,18.7-10.6c1.9-1.1,3.8-2.2,5.7-3.3
			c0.1,0.5,0.2,1.1,0.2,1.6c0,15.5,0,31.1,0,46.6c0,0.3,0,0.7-0.1,1.2c-10.8,6.4-21.6,12.8-33,19.4c0-1.2,0-1.9,0-2.7
			c0-15.1,0-30.3,0-45.4C222.8,147.7,222.7,146.9,222.7,146z"/>
		<path class="st5" d="M631.9,132.7c0,14.5,0,29,0,43.6c-5.6,0-11.2,0-17,0c0-20,0-40,0-60.1c9.3,0,18.5,0,28.2,0
			c3.1,12.2,6.1,24.4,9.3,36.9c3.4-12.4,6.7-24.7,10-36.9c9.5,0,18.6,0,27.9,0c0,20,0,40,0,60.1c-6.2,0-12.3,0-18.7,0
			c0-15,0-29.9,0-44.8c-0.2,0-0.3-0.1-0.5-0.1c-3.9,14.9-7.9,29.7-11.9,44.8c-5.5,0-10.8,0-16.4,0c-3.5-14.5-7-29.1-10.5-43.6
			C632.2,132.6,632.1,132.6,631.9,132.7z"/>
		<path class="st5" d="M451.6,116c2.7,0,5.3,0,7.8,0c9.3,0,18.7-0.2,28,0.1c4.4,0.2,9,0.8,13.1,2.3c6.3,2.2,9.9,7.1,10.2,14
			c0.3,6.7-2.4,11.6-8.4,14.7c-0.3,0.2-0.6,0.4-1.3,0.9c7.3,3.5,8.3,9.9,8.1,16.9c-0.1,3.7,0,7.4,0,11.3c-5.9,0-12.3,0-19.2,0
			c-0.3-3.9-0.6-7.8-0.7-11.8c-0.2-8.8-1.5-10.2-10.3-10.2c-2.6,0-5.1,0-8.1,0c0,7.4,0,14.6,0,22c-6.7,0-12.8,0-19.2,0
			C451.6,156.3,451.6,136.5,451.6,116z M470.8,141.2c5.5,0,10.6,0.3,15.6-0.1c3.1-0.3,4.6-2.7,4.6-5.6c0-2.8-1.3-5.1-4.1-5.7
			c-5.3-1.3-10.7-0.5-16.1-0.6C470.8,133.6,470.8,137.4,470.8,141.2z"/>
		<path class="st6" d="M919.6,176.3c-6.6,0-12.8,0-19.4,0c0-8,0-16,0-24.3c-7.4,0-14.3,0-21.7,0c0,8,0,16,0,24.2
			c-6.7,0-13.1,0-19.6,0c0-19.9,0-39.8,0-59.9c6.4,0,12.7,0,19.4,0c0,7.1,0,14.1,0,21.3c7.3,0,14.3,0,21.6,0c0-6.9,0-13.9,0-21.2
			c6.8,0,13.2,0,19.8,0C919.6,136.3,919.6,156.1,919.6,176.3z"/>
		<path class="st7" d="M561.4,114.4c3.4,0.5,7,0.7,10.4,1.5c14.9,3.6,24.1,15.9,23.7,31.2c-0.4,15.6-10.2,27.1-25.7,29.9
			c-6.4,1.2-12.7,1.3-19-0.2c-15.1-3.4-24.2-15.1-24.2-30.7c0-15.3,9.6-27.2,24.7-30.4C554.5,115,557.9,114.8,561.4,114.4z
			 M546.8,146.2c0.9,3.5,1.4,7.2,2.7,10.5c2.2,5.3,6.6,7.5,12.3,7.4c5.5-0.1,9.3-2.8,11.1-7.8c2.5-6.7,2.5-13.5,0-20.3
			c-1.9-5.3-6.1-7.9-11.9-8c-5.7-0.1-10,2.6-12,7.8C548,139.1,547.6,142.6,546.8,146.2z"/>
		<path class="st8" d="M996,116.4c0,4.6,0,8.9,0,13.6c-11.2,0-22.3,0-33.6,0c0,2.9,0,5.4,0,8.3c10.5,0,21,0,31.8,0
			c0,4.8,0,9.2,0,14.1c-10.6,0-21.1,0-31.9,0c0,3.5,0,6.5,0,10c11.8,0,23.6,0,35.9,0c-0.8,4.9-1.5,9.3-2.2,13.8
			c-17.7,0-35.3,0-53.1,0c0-19.9,0-39.7,0-59.9C960.5,116.4,978,116.4,996,116.4z"/>
		<path class="st5" d="M1067.6,138.3c0,5.1,0,9.4,0,14.1c-10.7,0-21.3,0-32,0c0,3.4,0,6.5,0,10c12,0,23.8,0,36,0
			c-0.8,4.9-1.5,9.2-2.2,13.8c-17.7,0-35.2,0-53,0c0-19.9,0-39.8,0-59.9c17.5,0,35.1,0,52.9,0c0,4.6,0,9,0,13.8
			c-11.3,0-22.3,0-33.6,0c0,2.9,0,5.4,0,8.3C1046.3,138.3,1056.9,138.3,1067.6,138.3z"/>
		<path class="st8" d="M766.5,130.1c-11.3,0-22.3,0-33.5,0c0,2.7,0,5.2,0,8.2c10.5,0,21,0,31.8,0c0,4.8,0,9.2,0,14.1
			c-10.6,0-21.1,0-31.9,0c0,3.5,0,6.5,0,10c11.9,0,23.7,0,35.9,0c-0.8,4.9-1.5,9.2-2.2,13.8c-17.8,0-35.3,0-53.1,0
			c0-19.9,0-39.7,0-59.8c17.6,0,35.1,0,52.9,0C766.5,120.8,766.5,125.2,766.5,130.1z"/>
		<path class="st8" d="M375.3,116.4c13.3,0,26.2-0.5,39,0.2c8.6,0.4,15.8,4.5,18.6,13.6c3.8,12.5-4,23.7-17.7,25.4
			c-5.3,0.6-10.7,0.4-16.1,0.6c-1.4,0-2.7,0-4.4,0c0,6.9,0,13.4,0,20.1c-6.6,0-12.9,0-19.4,0C375.3,156.3,375.3,136.4,375.3,116.4z
			 M394.8,142.5c4.7,0,9,0.2,13.3-0.1c4-0.3,6.2-2.7,6.2-6.4c0.1-3.7-2.1-6.3-6.1-6.5c-4.4-0.3-8.8-0.1-13.5-0.1
			C394.8,133.8,394.8,138,394.8,142.5z"/>
		<path class="st9" d="M211.2,188.2c-2.2-1-4.4-2-6.5-3.1c-4.5-2.5-9-5-13.5-7.5c-4-2.3-8-4.6-12-6.9c0.3-0.2,0.5-0.5,0.8-0.6
			c9.9-5.9,19.9-11.8,29.8-17.7c0.2-0.1,0.5-0.2,0.7-0.3c0.2,0,0.4,0.1,0.6,0.1c0,1.4,0.1,2.7,0.1,4.1c0,9.9,0,19.8,0,29.7
			C211.3,186.7,211.3,187.5,211.2,188.2z"/>
		<path class="st10" d="M782.5,130.1c0-4.9,0-9.3,0-13.9c19.7,0,39.3,0,59,0c0,4.6,0,9,0,13.8c-6.5,0-12.9,0-19.5,0
			c0,15.6,0,30.8,0,46.2c-6.6,0-12.9,0-19.6,0c0-15.2,0-30.4,0-46.1C795.6,130.1,789.2,130.1,782.5,130.1z"/>
		<path class="st11" d="M664.9,228.3c-2.1,0-3.8,0-6,0c0-7.4,0-14.6,0-21.8c-0.3-0.1-0.6-0.1-0.9-0.2c-2.6,7.2-5.1,14.5-7.7,21.9
			c-1.8,0-3.6,0-5.6,0c-2.5-7.4-5-14.9-7.5-22.4c-0.2,0-0.4,0.1-0.6,0.1c0,7.4,0,14.8,0,22.3c-1.9,0-3.5,0-5.4,0
			c0-9.8,0-19.6,0-29.6c3,0,5.8,0,8.9,0c2.4,6.8,4.9,13.7,7.3,20.5c0.2,0,0.5,0.1,0.7,0.1c2.5-6.9,5-13.7,7.6-20.6c3.1,0,6,0,9.1,0
			C664.9,208.6,664.9,218.3,664.9,228.3z"/>
		<path class="st12" d="M1049.6,228.4c-2.3,0-3.9,0-5.7,0c0-9.9,0-19.7,0-29.6c2.4,0,4.7,0,7.3,0c4.6,6.6,9.4,13.5,14.1,20.3
			c0.2,0,0.4-0.1,0.6-0.1c0-6.7,0-13.3,0-20.2c2.1,0,3.8,0,5.8,0c0,9.9,0,19.6,0,29.6c-2.3,0-4.5,0-7,0c-4.7-7.1-9.6-14.3-14.4-21.6
			c-0.2,0.1-0.4,0.1-0.6,0.2C1049.6,214,1049.6,221,1049.6,228.4z"/>
		<path class="st11" d="M986.9,213.4c0,9.3-6.6,15.7-16.1,15.8c-9.5,0-16.1-6.5-16-15.9c0.1-8.9,6.9-15.4,16.1-15.4
			C980.3,197.9,986.9,204.3,986.9,213.4z M980.2,213.6c0.1-6.5-3.6-10.7-9.4-10.7c-5.6,0-9.3,4.1-9.3,10.3c0,6.5,3.7,10.7,9.4,10.7
			C976.5,224.1,980.1,220,980.2,213.6z"/>
		<path class="st11" d="M738.1,197.9c9.3,0,16,6.4,16,15.5c0,9.3-6.5,15.8-16,15.8c-9.5,0.1-16.1-6.5-16-15.8
			C722.1,204.4,728.9,197.9,738.1,197.9z M747.4,213.4c0-6.5-3.7-10.5-9.6-10.5c-5.6,0.1-9.2,4.3-9.1,10.5
			c0.1,6.5,3.8,10.6,9.6,10.5C743.9,224,747.4,219.8,747.4,213.4z"/>
		<path class="st11" d="M574.3,213.5c-0.1,9.3-6.7,15.7-16.3,15.6c-9.3,0-15.8-6.4-15.8-15.6c0-9.1,6.9-15.7,16.3-15.7
			C567.7,197.9,574.3,204.4,574.3,213.5z M567.6,213.4c0-6.5-3.8-10.5-9.7-10.4c-5.6,0.1-9.1,4.3-9,10.6c0.1,6.5,3.9,10.5,9.7,10.4
			C564.1,223.9,567.6,219.8,567.6,213.4z"/>
		<path class="st13" d="M479.7,228.3c-0.1-2.5-0.2-4.7-0.3-7c-0.2-3.3-1.1-4.4-4.4-4.7c-2.5-0.2-5.1,0-8.3,0c0,1.9,0,3.9,0,5.9
			c0,1.9,0,3.8,0,5.9c-2.1,0-3.9,0-5.9,0c0-9.7,0-19.4,0-29.5c6.3,0,12.6-0.3,18.9,0.1c3.3,0.2,6,2.3,6.8,5.9
			c0.9,3.9-0.3,7.1-3.4,8.7c1,2.5,2.4,4.7,2.8,7c0.5,2.4,0.1,5,0.1,7.8C483.9,228.3,482,228.3,479.7,228.3z M466.9,211.5
			c3.3,0,6.5,0.1,9.6,0c2.3-0.1,3.8-1.5,3.9-3.9c0.1-2.4-1.5-3.9-3.7-4c-3.2-0.2-6.5-0.1-9.7-0.1
			C466.9,206.3,466.9,208.8,466.9,211.5z"/>
		<path class="st12" d="M384.2,217.1c0,4.1,0,7.7,0,11.3c-2.3,0-4.2,0-6.2,0c0-9.9,0-19.5,0-29.4c6.4,0,12.7-0.5,19,0.2
			c5,0.5,7.6,4.6,7.3,9.3c-0.3,4.7-3.3,8.1-8.3,8.6C392.3,217.4,388.6,217.1,384.2,217.1z M384.4,212.2c3.3,0,6.3,0.1,9.3,0
			c2.4-0.1,4-1.5,4.1-4.1c0.1-2.6-1.3-4.2-3.8-4.3c-3.1-0.2-6.3-0.1-9.6-0.1C384.4,206.4,384.4,209.1,384.4,212.2z"/>
		<path class="st13" d="M835.4,198.9c0,1.4,0,2.8,0,4.6c-3.4,0-6.7,0-10.4,0c0,8.5,0,16.5,0,24.8c-2.1,0-4,0-6.3,0
			c0-7.9,0-16,0-24.5c-3.8,0-7.2,0-10.8,0c0-1.8,0-3.2,0-4.8C817,198.9,826.1,198.9,835.4,198.9z"/>
		<path class="st14" d="M891.2,198.7c1.9,0,3.8,0,6,0c0,9.8,0,19.6,0,29.6c-2,0-3.9,0-6,0C891.2,218.5,891.2,208.7,891.2,198.7z"/>
		<path class="st3" d="M211.2,152.2c-0.2,0-0.4-0.1-0.6-0.1C210.8,152.1,211,152.1,211.2,152.2z"/>
	</g>
</g>
</svg>
