<?xml version="1.0" encoding="UTF-8"?>
<svg id="Calque_2" data-name="Calque 2" xmlns="http://www.w3.org/2000/svg" viewBox="0 0 1326.5 246.17">
  <defs>
    <style>
      .cls-1 {
        fill: none;
      }

      .cls-1, .cls-2, .cls-3, .cls-4 {
        stroke-width: 0px;
      }

      .cls-2 {
        opacity: .13;
      }

      .cls-2, .cls-4 {
        fill: #fff;
      }

      .cls-3 {
        fill: #c9b48a;
      }
    </style>
  </defs>
  <g id="Calque_1-2" data-name="Calque 1">
    <g>
      <g>
        <path class="cls-4" d="M358.68,179.51h-30.63v-112.86h30.63v112.86ZM400.76,144.37h-38.53l53.36-77.71h36.76l-34.82,49.5,44.34,63.36h-36.76l-24.34-35.15Z"/>
        <path class="cls-4" d="M515.01,179.51c-6.66,0-12.73-1.07-18.2-3.2-5.47-2.13-10.14-5.15-14.03-9.03-3.89-3.89-6.9-8.56-9.03-14.03-2.14-5.47-3.2-11.53-3.2-18.2s1.02-13.03,3.08-18.58c2.05-5.55,4.98-10.29,8.78-14.22,3.8-3.93,8.35-6.98,13.65-9.16,5.3-2.18,11.19-3.27,17.68-3.27h64.58l-14.35,22.42h-47.54c-6.66,0-11.92,2.03-15.76,6.09-3.84,4.06-5.77,9.42-5.77,16.08,0,3.42.49,6.51,1.47,9.29.98,2.78,2.41,5.17,4.29,7.18,1.88,2.01,4.14,3.55,6.79,4.61,2.65,1.07,5.64,1.6,8.97,1.6h58.05l-14.35,22.42h-45.1ZM500.53,145.94l14.35-22.42h54.71l-14.35,22.42h-54.71Z"/>
        <path class="cls-4" d="M629.05,150.94l-46.9-61.12h30.75l28.32,39.08,28.32-39.08h30.75l-46.9,61.12v28.57h-24.35v-28.57Z"/>
        <path class="cls-4" d="M705.13,108.57c0-6.34.99-12.06,2.98-17.17,1.99-5.1,4.84-9.51,8.54-13.22,3.71-3.71,8.14-6.55,13.3-8.54,5.16-1.99,10.85-2.98,17.09-2.98h69.65l-18.06,28.21h-49.01c-4.19,0-7.58,1.29-10.16,3.87s-3.87,6.02-3.87,10.32,1.29,7.58,3.87,10.16c2.58,2.58,5.97,3.87,10.16,3.87h30.31l-18.86,28.21h-14.03c-6.23,0-11.93-.99-17.09-2.98-5.16-1.99-9.59-4.84-13.3-8.54-3.71-3.71-6.56-8.14-8.54-13.3-1.99-5.16-2.98-10.86-2.98-17.09v-.81ZM854.74,137.59c0,6.23-.99,11.93-2.98,17.09-1.99,5.16-4.84,9.59-8.54,13.3s-8.12,6.56-13.22,8.55c-5.11,1.99-10.83,2.98-17.17,2.98h-69.65l18.06-28.21h48.85c4.19,0,7.58-1.29,10.16-3.87s3.87-6.02,3.87-10.32-1.29-7.58-3.87-10.16c-2.58-2.58-5.96-3.87-10.16-3.87h-30.15l18.86-28.21h14.03c6.34,0,12.06,1,17.17,2.98,5.1,1.99,9.51,4.84,13.22,8.54s6.55,8.12,8.54,13.22c1.99,5.11,2.98,10.83,2.98,17.17v.81Z"/>
        <path class="cls-4" d="M873.93,89.82h102.51l-14.35,22.42h-33.19v67.27h-24.35v-67.27h-44.98l14.35-22.42Z"/>
        <path class="cls-4" d="M975.15,135.05c0-6.92,1.02-13.22,3.08-18.9,2.05-5.68,4.98-10.51,8.78-14.48,3.8-3.97,8.35-7.05,13.65-9.23,5.3-2.18,11.19-3.27,17.68-3.27h26.78c6.66,0,12.73,1.07,18.2,3.2,5.47,2.14,10.14,5.17,14.03,9.1,3.89,3.93,6.9,8.67,9.03,14.22,2.13,5.55,3.2,11.75,3.2,18.58s-1.03,13.22-3.08,18.9c-2.05,5.68-4.98,10.51-8.78,14.48-3.8,3.97-8.35,7.05-13.65,9.23-5.3,2.18-11.19,3.27-17.68,3.27h-26.78c-6.66,0-12.73-1.07-18.2-3.2-5.47-2.13-10.14-5.17-14.03-9.1-3.89-3.93-6.9-8.67-9.03-14.22-2.14-5.55-3.2-11.74-3.2-18.58ZM1021.03,111.6c-6.66,0-11.92,2.05-15.76,6.15-3.84,4.1-5.77,9.65-5.77,16.66s1.92,12.96,5.77,17.11c3.84,4.14,9.1,6.21,15.76,6.21h22.68c6.66,0,11.92-2.05,15.76-6.15,3.84-4.1,5.77-9.65,5.77-16.66s-1.92-12.96-5.77-17.11c-3.84-4.14-9.1-6.21-15.76-6.21h-22.68Z"/>
        <path class="cls-4" d="M1101.11,119.67c0-4.7.75-8.97,2.24-12.81,1.49-3.84,3.61-7.13,6.34-9.87s6.02-4.85,9.87-6.34c3.84-1.49,8.11-2.24,12.81-2.24,5.21,0,10.23,1.22,15.06,3.65,4.83,2.43,8.69,5.7,11.6,9.8l23.32,32.67h-28.19l-15.51-20.5c-.77-.94-1.73-1.71-2.88-2.31-1.15-.6-2.33-.9-3.52-.9-2.05,0-3.7.62-4.93,1.86s-1.86,2.84-1.86,4.81v62.02h-24.35v-59.84ZM1207.21,89.82v59.58c0,4.7-.75,8.97-2.24,12.81-1.5,3.84-3.63,7.13-6.41,9.87-2.78,2.73-6.13,4.85-10.06,6.34-3.93,1.49-8.29,2.24-13.07,2.24-2.48,0-4.96-.32-7.43-.96-2.48-.64-4.87-1.56-7.18-2.76-2.31-1.19-4.44-2.6-6.41-4.23-1.97-1.62-3.67-3.46-5.13-5.51l-23.32-32.67h28.19l15.5,20.5c.68.94,1.64,1.71,2.88,2.31,1.24.6,2.45.9,3.65.9,1.96,0,3.57-.62,4.81-1.86s1.86-2.84,1.86-4.81v-61.76h24.35Z"/>
        <path class="cls-4" d="M1263.2,179.51c-6.66,0-12.73-1.07-18.2-3.2-5.47-2.13-10.14-5.15-14.03-9.03-3.89-3.89-6.9-8.56-9.03-14.03-2.14-5.47-3.2-11.53-3.2-18.2s1.02-13.03,3.08-18.58c2.05-5.55,4.98-10.29,8.78-14.22,3.8-3.93,8.35-6.98,13.65-9.16,5.3-2.18,11.19-3.27,17.68-3.27h64.58l-14.35,22.42h-47.54c-6.66,0-11.92,2.03-15.76,6.09-3.84,4.06-5.77,9.42-5.77,16.08,0,3.42.49,6.51,1.47,9.29.98,2.78,2.41,5.17,4.29,7.18,1.88,2.01,4.14,3.55,6.79,4.61,2.65,1.07,5.64,1.6,8.97,1.6h58.05l-14.35,22.42h-45.1ZM1248.72,145.94l14.35-22.42h54.71l-14.35,22.42h-54.71Z"/>
      </g>
      <g>
        <g>
          <path class="cls-1" d="M239.85,143.31c0-45.87-28.37-85.23-68.48-101.47l-4.01,9.93c36.19,14.65,61.78,50.16,61.78,91.54,0,31.6-14.92,59.77-38.09,77.85l6.58,8.44c25.68-20.04,42.22-51.27,42.22-86.29Z"/>
          <path class="cls-1" d="M31.71,143.31c0-41.62,25.89-77.3,62.4-91.8l-3.94-9.96C49.69,57.63,21,97.18,21,143.31c0,34.91,16.43,66.06,41.97,86.1l6.6-8.42c-23.04-18.09-37.87-46.18-37.87-77.68Z"/>
          <path class="cls-3" d="M21,143.31c0-46.13,28.69-85.68,69.17-101.75l-7.72-19.53C34.2,41.19,0,88.33,0,143.31c0,41.61,19.59,78.73,50.03,102.63l12.94-16.52c-25.54-20.05-41.97-51.19-41.97-86.1Z"/>
          <path class="cls-3" d="M179.22,22.37l-7.86,19.47c40.11,16.24,68.48,55.6,68.48,101.47,0,35.02-16.54,66.25-42.22,86.29l12.9,16.56c30.61-23.89,50.32-61.11,50.32-102.85,0-54.67-33.82-101.58-81.63-120.94Z"/>
          <path class="cls-4" d="M229.14,143.31c0-41.38-25.59-76.89-61.78-91.54l-5.62,13.92c30.69,12.43,52.4,42.52,52.4,77.62,0,26.79-12.67,50.67-32.31,66l9.23,11.85c23.16-18.08,38.09-46.25,38.09-77.85Z"/>
          <path class="cls-4" d="M46.71,143.31c0-35.29,21.96-65.53,52.93-77.82l-5.53-13.97c-36.52,14.5-62.4,50.18-62.4,91.8,0,31.5,14.83,59.59,37.87,77.68l9.26-11.82c-19.54-15.34-32.13-39.15-32.13-65.86Z"/>
          <path class="cls-2" d="M130.42,106.96c-20.07,0-36.35,16.27-36.35,36.35s16.27,36.35,36.35,36.35,36.35-16.27,36.35-36.35-16.27-36.35-36.35-36.35ZM130.42,167.77c-13.51,0-24.46-10.95-24.46-24.46s10.95-24.46,24.46-24.46,24.46,10.95,24.46,24.46-10.95,24.46-24.46,24.46Z"/>
          <circle class="cls-4" cx="130.42" cy="143.31" r="24.46" transform="translate(-21.27 22.74) rotate(-9.22)"/>
        </g>
        <path class="cls-3" d="M108.68,65.49h42.9l19.79-60.83c-27.22-6.17-54.28-6.24-81.19,0l18.51,60.83Z"/>
      </g>
    </g>
  </g>
</svg>